# xmcd
#
# Track frame offsets: 
#        150
#        20401
#        38102
#        56703
#        73233
#        95059
#        114508
#        133309
#        153167
#        170830
#        189778
#        210479
#        228030
#        248881
#        267069
#
# Disc length: 3764 seconds
#
# Revision: 0
# Processed by: cddbd v1.5.2PL0 Copyright (c) Steve Scherf et al.
# Submitted via: ExactAudioCopy v1.0b4
#
DISCID=ce0eb20f
DTITLE=Mike Zito - Troubadour
DYEAR=2015
DGENRE=Blues
TTITLE0=Love Like This
TTITLE1=Today
TTITLE2=Little Red Corvette
TTITLE3=Blinded
TTITLE4=Time To Go Home
TTITLE5=Pearl River
TTITLE6=One Step At A Time
TTITLE7=Natural Born Lover
TTITLE8=Dead Of Night
TTITLE9=C'mon Baby
TTITLE10=Greyhound
TTITLE11=Roll On
TTITLE12=Judgment Day
TTITLE13=Until The Day I Die
TTITLE14=Hello Midnight
EXTD=
EXTT0=
EXTT1=
EXTT2=
EXTT3=
EXTT4=
EXTT5=
EXTT6=
EXTT7=
EXTT8=
EXTT9=
EXTT10=
EXTT11=
EXTT12=
EXTT13=
EXTT14=
PLAYORDER=
